<svg xmlns="http://www.w3.org/2000/svg" viewBox="0 0 100 100">
  <defs>
    <linearGradient id="chandlerGrad" x1="0%" y1="0%" x2="100%" y2="100%">
      <stop offset="0%" style="stop-color:#ff6b35;stop-opacity:1" />
      <stop offset="100%" style="stop-color:#f7931e;stop-opacity:1" />
    </linearGradient>
  </defs>
  
  <!-- Background -->
  <circle cx="50" cy="50" r="50" fill="url(#chandlerGrad)"/>
  
  <!-- Chandler-style face -->
  <circle cx="50" cy="45" r="25" fill="#f4d03f"/>
  
  <!-- Eyes -->
  <circle cx="42" cy="40" r="3" fill="#2c3e50"/>
  <circle cx="58" cy="40" r="3" fill="#2c3e50"/>
  
  <!-- Eyebrows (sarcastic) -->
  <path d="M 35 35 Q 42 32 49 35" stroke="#2c3e50" stroke-width="2" fill="none"/>
  <path d="M 51 35 Q 58 32 65 35" stroke="#2c3e50" stroke-width="2" fill="none"/>
  
  <!-- Mouth (sarcastic smile) -->
  <path d="M 40 55 Q 50 60 60 55" stroke="#2c3e50" stroke-width="2" fill="none"/>
  
  <!-- Hair -->
  <path d="M 25 30 Q 50 15 75 30 Q 70 25 50 20 Q 30 25 25 30" fill="#8b4513"/>
  
  <!-- Glasses frames -->
  <ellipse cx="42" cy="40" rx="8" ry="6" stroke="#2c3e50" stroke-width="1.5" fill="none"/>
  <ellipse cx="58" cy="40" rx="8" ry="6" stroke="#2c3e50" stroke-width="1.5" fill="none"/>
  <line x1="50" y1="40" x2="50" y2="40" stroke="#2c3e50" stroke-width="1.5"/>
</svg> 